<mxfile host="app.diagrams.net" modified="2024-02-28T00:38:24.963Z" agent="Mozilla/5.0 (Windows NT 10.0; Win64; x64) AppleWebKit/537.36 (KHTML, like Gecko) Chrome/121.0.0.0 Safari/537.36" etag="sdznhBoMwn_sG5ScxKdy" version="23.1.6" type="github">
  <diagram name="第 1 页" id="tWkE5W1APxt2q5LTrTMe">
    <mxGraphModel dx="1050" dy="635" grid="1" gridSize="10" guides="1" tooltips="1" connect="1" arrows="1" fold="1" page="1" pageScale="1" pageWidth="827" pageHeight="1169" math="0" shadow="0">
      <root>
        <mxCell id="0" />
        <mxCell id="1" parent="0" />
        <mxCell id="Nct4pxDYZnbTAuoAgPJD-1" value="" style="shape=image;verticalLabelPosition=bottom;verticalAlign=top;imageAspect=0;aspect=fixed;image=data:image/png,iVBORw0KGgoAAAANSUhEUgAAAMgAAADICAYAAACtWK6eAAAAAXNSR0IArs4c6QAAFdpJREFUeF7tnQ2UXVV1x39hJh+TzJgwk++kDWiFWsDEtioGETECpRhDkW+ixY9ii1oLVLtWAQWVtIqEFj9ZIrZFEq2WWlBAgYKCFkUBC7LIQi2BfCfkeyaZyUzStfPum7z77rvvnnvvmfPOnbv3Wm/NJLPPPvv89/m/c+655+wzBhVFQBGIRWCMYqMIKALxCChBtHcoAk0QUIJo91AElCDaBxSBbAjoCJINNy1VEgSUICUJtDYzGwJKkGy4aamSIKAEKUmgtZnZEFCCZMNNS5UEASVISQKtzcyGgBIkG25aqiQIKEFKEmhtZjYElCDZcNNSJUFACVKSQGszsyGgBMmGm5YqCQJKEPNA/y7wgrl6YTV/D/h1Yb237LgSJBnQPwG+BBwR/PwgsD+5WOE0DgO+ArwH2AX8oRIFlCDJ/fizwBU1ancAFwADyUULozEOWAmcVePxPcCfFqYFI+SoEiQZ2HqCSIm7gPOBvuTi3mtMDMjx9jpPfwy80XvvR9hBJUgywDLFkm/TepH/k5FkR7IJbzVeBnwDOL2Bh0uAO7313JFjShAzoM8B/r2B6n0BSV4yM+OVVndAjlMaeHUu8C2vvG2RM0oQc+DjSPJgQJKN5qZarjk9IMfJSo7msVCCpOurcSR5OCDJ2nTmWqI9OyDHiUqOZPyVIMkY1WvEkeTR4MF9dXqTzkrMC8hxvJLDDHMliBlOpiT5eUCS3zQxK+8b3gTMBGYFn/rfe4Ly/cCLwQtK+dnoY7pI8IqAHH+s5DAPuhLEHCtTkjwZTLeeDQpMCgghU5qTgIXZq2xYUur5DvBt4Bcxto8OyLFAyZEOfSVIOrxMSfJ00FnlIVi2qLiSdQFZbq0hiyzl/gQ4RsmRPgxKkPSYmZIkv+V8FnqB24H/Ab6m5MgGphIkG25WSHLYFGibAocdDvJ79d9jOgPz++FAL+zvgwN9sL+38rP/qcrPHKLvOQzBU4IYAtVE7b3APwHVbh2rOv41MOF4mPCGyiePDPwK+n8J+1ZB9XdDe0oOQ6BETQmSAqw6VdmndDVwapyJtpnQ8WaY8LrKp21G9sqSSg48A3segb3ykUlVc/k6cBmwJUmx7H9XgmTrAR8HPgbIkm1Exr4COt8BnWdXpk+uZd/z0Hsn7P4mDG2KrV22tP8NIA/0KjEIKEHSdQ05I3EdIBsYIzJ+PnSeW/n4IEKOXd9IJMp/Ah8A1vvgs28+KEHMI/JXATkiY0LHSTDhBGifXfm0yaf6qs/cvlXNA/tgaHNlBBlcDftWNyWKvNj8c0C2uKvUIKAEMesO/wq8y0y1ojXpTJh8KYw9Mk0pO7q7VsDOm2FQ3oqkE2njbemKjG5tJUhyfFOTo9bk5A/BlL9OrsSWxqa/gD0P5bJ2DXBtLgujqLASpHkw5QH23Xnj3dYNc3+a10py+dWvTNYx1BBKf85Qd1SrKUHiwyv7m+RUnRXpugi65bt5hGT7DbDjy1aNfxi4yarFAhpTgjQO2gPAWwzjKRMaeR+yChgEXg6cHbxnGF9rY8bXYcLrDa2mUOt7ADb/ZcMCfwfcCzwHTAl8E82lhuavBJYZ6o5KNSVINKz/UZfd46DGyy6Gnf8SUZbds422j4uiLAkLebqqpToWwXS73/IHt5ysWwyD0YxdklTimzG9Vs7Sr6j928S3Qt/9DbVl9c6y18XhkhIkHKvlwTd/6H97Pg27boMB2aN7SH4FHJsQ6otrNwq2TYe5lhdS+5+EDXKEKyyy9UXelDeTG4MXhQd1Jp0BQ9tgr+z7Dctu4LRgR3BxerYlT5Ugh4CUhHCRB9Puq2DiabAmekDVdI4uU6+jqtXMeQDaLW6Al7flL10V6Q0yqsWdDakqvw4YXjqQt/+z7oKNS6H/8Yg9oY2QRMhSKlGCVMIt+6rkXHlIpnwYJn8Q+u6BzdGlWtO0OLLv6aKq4ek3Q4fp041BV9z6icroVieSsWRbQnHRCWVjmfccDG2ETe+vbICsE5lmyXSrVKIEqYRbEsG9rTbyXUuhW3ZcSR7O20A6Yp38WXA4KanDhAhi+72IfOPvjS4hTzPYiBghyKw7YNxxsO83sOmShs81pXuRqASB99c/hMoD6zTJxhvI4IuwNvqtLytEn0liR7C6NTzFmrkSxsc91hsYq1fZeQts+3SkoIyISU87oSkW7TBPnrHaKrb6fgCbZYdWWGQ1TI4Nl2bfVtkJMieYWg1vCBkzFmZIJ54f7hkbzq6cv6gR2Q0rr+aa5cMKPaSPGQ+/8ziMkUy4lkS+7ddFt07KqPXOhCpCD+mdZ4EsRtTK9ptgR/R1oXx1XGrJfe/NlJ0g8iLsQ7VRipsCxXSW/wXqqDRsLbrMexJMv8V+n2hAXqlEnntCS7k1NUeWeaf+M0xqkKpaRhEZTerkHYAk8R71UmaCvBqQ9ZpgUlEZNWT0kFGkXgZWwab3NDxfISOIfPd+P5h6xL4otP38UfUxhrzyZ9kqI283xDd5aSm+RV4Uth8Bs74Nh02Otlver2w4v7IzuEYkvdFrRz07Sn6iUN4VyFLtsMhzhzx/xEnMapZRP5EXjYfLe+kRkpeuhN2Nsgcn1dcGM26BCU3yuG9fDjtqnskCk81eRCbVWpi/l3UEkSRqMnpISpyD0nUBdEdXqiKBbPJtHRt0OV3Y848j3CeGYOO7jY7bhhzpWQad0ReNIR0ZRdYvgf3htyDfq1/5G+EWtsR8WQkipwL/voq4HIud9Z3KYScT2fpxkDMXJtJ5PvR80kQzv87gWti2rOEzQ8S4vNXvPM98K/626xputZG8X/k21+dv9ohaKCNBpgJPBak/D4IrHaXnU+lwHlwDu+9ouMozPCJ1XQxjZdbvWGT7ye6VFf/qRYghO4tlyjdGrs4xlIFnK6NI3eVzXwXeZ2iikGplJIik6QmtJU3/KnRIttwMcmAA+p8IFxy/AGRJt9UiI4oQuVby7Cbe8lHolRPsh0Syosh0dWer2zpS9ZeRIHJr0uIqoOOOqUyvVJIR6LsPNkffgMgTjOQFHpVSNoL8ARDaZTTlcphcuh1G2fvy2rdWkkDUiNyMe0l2i36XLBtB5MFcHtCHZc6D0D7X7yD55N22z8BOocQheR6Qu9WHfPLTli9lI8gjwAlV8GQb+7TP24KyHHZizp/IVvjo+/ZRAEnZCCIpnztGQdx8a4IcOU65DuhbExr7UyaCyCUy1UttihGd4ngpxwXq71kvjvdNPC0TQSSA/zUqouZfIzYAxxmcQfHP8wSPykQQ2VD40cJFqDgOnwHcXRx3zTwtE0GC84FmwKhWJgRGXUbGMhEkU8S1ULkRUIKUO/7aen0G0T6gCGRHQEeQ7NhpyRIgoAQpQZC1idkR8JUgC4Kct68Kctz+ESAbtyUDlCRKkAQ196VotqxgjWBu9RSejG7VNP3pFEDiewwg8ZWPxPdnQXwfA+oOErgHL02DXHknF0tKh5Zs5M0kzS5SJYib6Jn2p1DKoRjXegE5qNzSLSymDXIDL/ybQT6nWl/kkjFJ6Sb5b5uJEsRNBE36k4wKMkMwlUeBnLfKm1YV1TNpUHbr6UrenONcgdxAHn/hcWVE0ilWunhk0U7qT2sBw5P/oerlcod5WRzKWyapQXntm5Y/C5B7OUIiKTo7Tob2ORy8B0MyG+4WLbmmJizN7ukQzQhB5DIblXwISF7gOmnWnxp+SU08FcYeXblYaO8j0P905WcDMc2mn69RKRpktaImxiRTrTyQhaTnH6BT7mlqIJveB3t+GPmDzGsvj6knEhzJZK6SHQFJmJ2CIHLPoySxC0ncjVt7/ruSYb6BSNYyuf3LmfgwgkhKstAFYlNvhEmhXOtRPDZcCP0RWh1MIPDbBugpQSx3qZQEkazGkslyWJLuSZFcXGsXRZyWe0qGD7xZblJDcz4QRLKQL6x6N2kxTJV7nhIk5mTbmTFb2pUgSYCm/HsKgkhC0+215qdcAZMb36kY8kIuJZXLSWtkL3A4ID+diA8EkSzpndXWprlgRvI0DTwTwinuZJsSxHJ3SkGQyOVEcx+GtpnJDu1bBeuiMwlZ0ZKVLSfSaoLIi6JQF5/zI2ifZdb2LZdB73dDupKd9rwGpZUgZpAaa6UgiOSM+WLV8NgjYbbh6fX9u+BFyZEfFqeXiraaIG8GHqxtfyqCfAR6wzmtJA2mpMOsFyWIcdc3U0xBkBD2slqVZgVxtdzAEhZZrnd27kQJYtYfVKsOASWImy6hI4gbnK3XogSxDmlDg0oQNzhbr0UJYh1SJYgbSN3UogRxg7OOIG5wtl6LEsQ6pDqCuIHUTS1KEDc46wjiBmfrtShBrEOqI4gbSN3UogRxg7OOIG5wtl6LEsQ6pDqCuIHUTS1KEDc46wjiBmfrtShBrEOqI4gbSN3UogRxg7OOIG5wtl6LEsQ6pDqCuIHUTS1KEDc46wjiBmfrtShBrEOqI4gbSN3UogRxg7OOIG5wtl6LEsQ6pDqCuIHUTS1KEDc46wjiBmfrtShBrEOqI4gbSN3UogRxg7OOIG5wtl6LEsQ6pDqCuIHUTS1KEDc46wjiBmfrtShBrEOqI4gbSN3UogRxg7OOIG5wtl6LEsQ6pDqCuIHUTS1KEDc46wjiBmfrtShBrEOqI4gbSN3UogRxg7OOIG5wtl6LEsQ6pDqCuIHUTS1KEDc46wjiBmfrtShBrEOqI4gbSN3UogRxg7OOIG5wtl6LEsQ6pDqCuIHUTS1KEDc46wjiBmfrtShBrEOqI4gbSN3UogRxg7OOIG5wtl6LEsQ6pDqCuIHUTS1KEDc46wjiBmfrtShBrEPa0KBcE/+L2r+kuif9cui9K2RX/vX2BjXpPemW45mCIJcDN1SrH3s0zP6umTMH9sILx0V0rwCWm1nIr9Xqe9LbgT5gbLUp02+FjhPNGrbhbOj/ZUj3KuA6JYgZfnm0UhDkTcAPa+ua+zC0zUyufWAVrH9bRO8k4EfJpe1otJog0opHgBOqzek8B3qWJTdu4FlYvziiJ//T6PtJR5BkSFNppCBIN/BSrfHua6DrouTqdt0OW6+J6PUAW5NL29HwgSBfAC6tbc70W6BDvieayKZLYM+DEYWXA/+nI4idztHMSgqCiJkngfmhUeSn0CbUiZGhrbDm9ZE/ynxhwci37lANPhBkEXB/baPHTICpy2HiKY2h2HIF9N4Z+dsKIO57SUcQy70qJUFk6vvJehe6r4WuC6OObb8JdnyuocMfAT5ruSlNzflAEHFQHrouq/d04qnQ8RZonwsH+qD/Sdj9LRjaHGnTDmAO0BvTWiWI5V6VkiBS+7PA0ZEYnw7j58O4Yyvx7f8Z7Gn8hPEQcLLlZiSa84Ug4ugq4KhEjxsrLAGiY8ohXSVIRmDjimUgyELgxzncGA8M5CifqahPBJEGyFRLplxpRAbplQkFlCBpEDXQzUAQsXoBIFPhNPJ8sHT/VJpCtnR9I4i0652APLh3JTTyeuBqoN8ADCWIAUhpVDISRKqQkUCeR+R5opnIaCHT7i+m8cu2ro8EkTa+GjgVeGPwkaU9kUcBmYvKuvq9KcBQgqQAy0Q1B0Gq5k+ria/EWd6J7a2J7z1A+C2XiWOWdXwlSH0zXxMs327P2H4lSEbg4opZIEitaSGHkES+/LySohAkL2hKkLwI1pW3TBDL3tkzpwSxh2WpLClBRle4dQSxHE8liGVAW2xOCWI5AEoQy4C22JwSxHIAlCCWAW2xOSWI5QAoQSwD2mJzShDLAVCCWAa0xeaUIJYDoASxDGiLzSlBLAdACWIZ0BabU4JYDoASxDKgLTYn+7q+X+vD7Lth7Ctb7FWBq9+2DHZ+LdQA2cou20VGlZTlTfoMYENt5Lo/Bl2yb1glNQKSbWTDeTDwTKionPRL2qGbuq5WFygLQQRn2Rkqu4SHZdpNMPH0VoegePVvXAoyxaqTdwG3Fa81zT0uE0GuBD5VD8ekxdB5HkyIJggYbbHO1Z792ytHYXd8Cfb9OmJKDjW9FtiSqxIPC5eJIAK/TApeZSsO854ztxTzrWtuwECzhf5cAnzFwMXCqZSNIEcCv7UVpRZ2yIZNaJE/dwNn2MLUNztlI0gV/8iyb5bAtKhDxrrq2B/JJLM0JlFfFji9LFNWgkgwJHG2BPh44Jgs0XHcIRNddODPHuAx4OdBfqr1iU4VXKHMBKkNnSwDmzybhHI55uyQcrz02pz9x6U/u+oTjef0vRDFlSDmYYpc1WCBIHkSofnmjzmSBdJUgpgHy7cO6Zs/5kgWSFMJYh4s3zqkb/6YI1kgTSWIebB865C++WOOZIE0lSDmwfKtQ/rmjzmSBdJUgpgHy7cO6Zs/5kgWSFMJYh4s3zqkb/6YI1kgTSWIebB865C++WOOZIE0lSDmwfKtQ/rmjzmSBdJUgpgHy7cO6Zs/5kgWSFMJYh4s3zqkb/6YI1kgTSWIebB865C++WOOZIE0lSDmwfKtQ/rmjzmSBdJUgpgHy7cO6Zs/5kgWSFMJYh4s3zqkb/6YI1kgTSWIebB865C++WOOZIE0lSDmwfKtQ/rmjzmSBdJUgpgHy7cO6Zs/5kgWSFMJYh4s3zqkb/6YI1kgTSWIebB865C++WOOZIE0lSDmwfKtQ/rmjzmSBdJUgpgHy7cO6Zs/5kgWSFMJYh6so4BVtepzHoL2OWYG1i+JZENfCVxoVrqhVi5/1i6CwRdCdm8F3pvDn1FZVAmSLqw7ga5qkanXw6QzzQysWQhDm0O6fwvcYFY6ViuTP4NrYa2MP2GRJHq35/Rn1BVXgqQLqSRqG+5anedAz7JkA/1PwIZzI3py8cK9yaWbamTyZ9ftsPWaiF0ZkVKk487peUGKK0HSBerzwAdqi0z7Mkxc1NzIutNgXzRl9hHA6nTVR7RT+zO0FdZEr3p4Gjgupy+jsrgSJF1YhQr31xeRm6rkxqp66bsHtn4ChqK3ZqwALkpXdUNtGYUku3pI4vzZtQK2StruqFzd6O4UC/4V3oQSJH0IlwOX1RfrOBHGLYDxx8Lgeuh/DHq/19C4ZEWXR/ve9FU3LCFkuyCHP7Lw8PuWfBl1ZpQg2UIqnUrm7FlkCXBnloJNyhzIYe8E4Cc5yo/qokqQ7OGVqVbC00fEuCzryvKubZHnByGdPNekkZHyJ40PXusqQfKFR+7J/ULt0m+MuesBmef356susfSlwI3AuARNV/4kOuy7ghIkf4Tk5tyFwPzgFl35t1ws8wTwePDzB/mrMbYgfrzBI3+MHfdRUQniY1TUJ28QUIJ4Ewp1xEcElCA+RkV98gYBJYg3oVBHfERACeJjVNQnbxBQgngTCnXERwSUID5GRX3yBgEliDehUEd8REAJ4mNU1CdvEFCCeBMKdcRHBJQgPkZFffIGASWIN6FQR3xEQAniY1TUJ28QUIJ4Ewp1xEcElCA+RkV98gYBJYg3oVBHfERACeJjVNQnbxBQgngTCnXERwSUID5GRX3yBgEliDehUEd8ROD/AaZVXzLS/jqlAAAAAElFTkSuQmCC" vertex="1" parent="1">
          <mxGeometry x="100" y="160" width="50" height="50" as="geometry" />
        </mxCell>
        <mxCell id="Nct4pxDYZnbTAuoAgPJD-6" style="edgeStyle=orthogonalEdgeStyle;rounded=0;orthogonalLoop=1;jettySize=auto;html=1;exitX=1;exitY=0.5;exitDx=0;exitDy=0;entryX=0;entryY=0.5;entryDx=0;entryDy=0;" edge="1" parent="1" source="Nct4pxDYZnbTAuoAgPJD-2" target="Nct4pxDYZnbTAuoAgPJD-4">
          <mxGeometry relative="1" as="geometry" />
        </mxCell>
        <mxCell id="Nct4pxDYZnbTAuoAgPJD-41" style="edgeStyle=orthogonalEdgeStyle;rounded=0;orthogonalLoop=1;jettySize=auto;html=1;exitX=0.5;exitY=1;exitDx=0;exitDy=0;entryX=0;entryY=0.5;entryDx=0;entryDy=0;" edge="1" parent="1" source="Nct4pxDYZnbTAuoAgPJD-2" target="Nct4pxDYZnbTAuoAgPJD-38">
          <mxGeometry relative="1" as="geometry" />
        </mxCell>
        <mxCell id="Nct4pxDYZnbTAuoAgPJD-2" value="APK" style="rounded=0;whiteSpace=wrap;html=1;" vertex="1" parent="1">
          <mxGeometry x="100" y="210" width="50" height="30" as="geometry" />
        </mxCell>
        <mxCell id="Nct4pxDYZnbTAuoAgPJD-10" style="edgeStyle=orthogonalEdgeStyle;rounded=0;orthogonalLoop=1;jettySize=auto;html=1;exitX=0;exitY=0.5;exitDx=0;exitDy=0;startArrow=classic;startFill=1;endArrow=none;endFill=0;" edge="1" parent="1" source="Nct4pxDYZnbTAuoAgPJD-3">
          <mxGeometry relative="1" as="geometry">
            <mxPoint x="190" y="230" as="targetPoint" />
          </mxGeometry>
        </mxCell>
        <mxCell id="Nct4pxDYZnbTAuoAgPJD-3" value="AndroidManifest.xml" style="rounded=0;whiteSpace=wrap;html=1;" vertex="1" parent="1">
          <mxGeometry x="230" y="170" width="130" height="30" as="geometry" />
        </mxCell>
        <mxCell id="Nct4pxDYZnbTAuoAgPJD-12" style="edgeStyle=orthogonalEdgeStyle;rounded=0;orthogonalLoop=1;jettySize=auto;html=1;exitX=1;exitY=0.5;exitDx=0;exitDy=0;entryX=0;entryY=0.5;entryDx=0;entryDy=0;" edge="1" parent="1" source="Nct4pxDYZnbTAuoAgPJD-4" target="Nct4pxDYZnbTAuoAgPJD-13">
          <mxGeometry relative="1" as="geometry">
            <mxPoint x="440" y="225" as="targetPoint" />
          </mxGeometry>
        </mxCell>
        <mxCell id="Nct4pxDYZnbTAuoAgPJD-4" value="class.dex" style="rounded=0;whiteSpace=wrap;html=1;" vertex="1" parent="1">
          <mxGeometry x="230" y="210" width="80" height="30" as="geometry" />
        </mxCell>
        <mxCell id="Nct4pxDYZnbTAuoAgPJD-11" style="edgeStyle=orthogonalEdgeStyle;rounded=0;orthogonalLoop=1;jettySize=auto;html=1;exitX=0;exitY=0.5;exitDx=0;exitDy=0;startArrow=classic;startFill=1;endArrow=none;endFill=0;" edge="1" parent="1" source="Nct4pxDYZnbTAuoAgPJD-5">
          <mxGeometry relative="1" as="geometry">
            <mxPoint x="190" y="230" as="targetPoint" />
          </mxGeometry>
        </mxCell>
        <mxCell id="Nct4pxDYZnbTAuoAgPJD-5" value="other resource files" style="rounded=0;whiteSpace=wrap;html=1;" vertex="1" parent="1">
          <mxGeometry x="230" y="250" width="130" height="30" as="geometry" />
        </mxCell>
        <mxCell id="Nct4pxDYZnbTAuoAgPJD-21" value="" style="edgeStyle=orthogonalEdgeStyle;rounded=0;orthogonalLoop=1;jettySize=auto;html=1;" edge="1" parent="1" source="Nct4pxDYZnbTAuoAgPJD-13" target="Nct4pxDYZnbTAuoAgPJD-20">
          <mxGeometry relative="1" as="geometry" />
        </mxCell>
        <mxCell id="Nct4pxDYZnbTAuoAgPJD-13" value="" style="rounded=0;whiteSpace=wrap;html=1;dashed=1;" vertex="1" parent="1">
          <mxGeometry x="450" y="185" width="130" height="80" as="geometry" />
        </mxCell>
        <mxCell id="Nct4pxDYZnbTAuoAgPJD-14" value="*.jar" style="rounded=1;whiteSpace=wrap;html=1;fillStyle=auto;fillColor=#E6E6E6;" vertex="1" parent="1">
          <mxGeometry x="461" y="193" width="40" height="40" as="geometry" />
        </mxCell>
        <mxCell id="Nct4pxDYZnbTAuoAgPJD-16" value="*.jar" style="rounded=1;whiteSpace=wrap;html=1;fillColor=#E6E6E6;" vertex="1" parent="1">
          <mxGeometry x="496" y="203" width="40" height="40" as="geometry" />
        </mxCell>
        <mxCell id="Nct4pxDYZnbTAuoAgPJD-17" value="*.jar" style="rounded=1;whiteSpace=wrap;html=1;fillColor=#E6E6E6;" vertex="1" parent="1">
          <mxGeometry x="531" y="220" width="40" height="38" as="geometry" />
        </mxCell>
        <mxCell id="Nct4pxDYZnbTAuoAgPJD-18" value="&lt;font style=&quot;font-size: 15px;&quot;&gt;dex2jar&lt;/font&gt;" style="text;strokeColor=none;fillColor=none;align=left;verticalAlign=middle;spacingLeft=4;spacingRight=4;overflow=hidden;points=[[0,0.5],[1,0.5]];portConstraint=eastwest;rotatable=0;whiteSpace=wrap;html=1;" vertex="1" parent="1">
          <mxGeometry x="390" y="198" width="64" height="30" as="geometry" />
        </mxCell>
        <mxCell id="Nct4pxDYZnbTAuoAgPJD-19" value="" style="shape=image;verticalLabelPosition=bottom;verticalAlign=top;imageAspect=0;aspect=fixed;image=data:image/png,iVBORw0KGgoAAAANSUhEUgAAAMgAAADICAYAAACtWK6eAAAAAXNSR0IArs4c6QAAGTRJREFUeF7tnQncPlVVx38maamBCkRChoobLkSgmRtolIqCC1aoYeGaCKZJolJKGy6kYuCSaIqQW2i4oSgibhioqIWmoJSYlVsuIAqC6Xz1jjwMc5eZ587MnXnO+Xyez/v+/8+du5y53/du555zDZmYBkwDXg1cw3RjGjAN+DVggFjvMA0ENGCAWPcwDRgg1gdMA/00YCNIP73ZUxuiAQNkQ160NbOfBgyQfnqzpzZEAwbIhrxoa2Y/DRgg/fRmT22IBgyQDXnR1sx+GjBA+ult7k9tKen2knaRdBNJN2x8tnb/vqakSyR9x33q38+XxOc895PfFykGyCJf61UaReffU9LtHBSAcesBmn26JD5nSfqIA2uAYsbN0gAZV99jlQYUe698+PeYcrGkD0l6u/t8cczCc5ZlgOTU5rR5TQ2Fr/WXroACMP83rZq6lW6AdNNXiakB4yBJj5e0fYkVXKnTBZIOkXRq4fX8afUMkLm8qavX8zorYNxsRs1gwc866AtzqLMBMoe3dNU6/owDg1Hjthmqf5mkL0n6L/dz9ffLV3a36p2tesfrlpJ26ln+UyUd1fPZUR8zQEZV99qF7SfpcEm798zpm9WO1hmS3inp4w6Kr/XMi8e2lXRXSXeRdGf3E4BjQjtOjiUq4XsDpIS3EK/DdpKeIengeNKrpThT0gerDvwuSe/r8XzXR46oHviLwEPnVIv2O3TNdKr0BshUmk8v92EOjtSzi69IeovbZn2vpP9OL2rtlDE4KOD3qqnhSWuXNFIGBshIiu5RzI6SninpkYnPsl441n2mWAAvDg70boAk9r6Rk/2apNdI2jmx3OMdGKwrppBFwmGATNGV4mWy4GWKtE08qd5W7TIdI+k9CWmHSrJYOAyQobpM/3x/09kzxXJg4c106g2xhAN/v2g4DJCBe0/H7O/vRo7YY0+T9NxYohG+XzwcBsgIvSixiMMSO/1DChg1aNJGwGGAJPbegZM9UdILI2Vg4He/yjr37IHrkpL9xsBhgKR0h2HTPFTSayNFfLK6Y3GfyryE842pZaPgMECm7W57Jew+sUvF2qQE2Tg4DJDpuh23+7hQtFWgCi/paVoyRKs2Eg4DZIiuFM/zF93Igcm3T7B0xeK1BNlYOAyQaboft+pYcPvkrZIeME3VrlbqRsNhgIzfCzFVPzJQLMaFrE1KECxyASQkszI87KNUs8Xqo7V+z+wm6QOSrut5/MPubkW/3PM+ZXA4fRogeTtWKLc3SnqwJ8EnJN2ruq/99fGq4y3J4FhRjQEyTo98TOVQ4ThPUVx1vbekz4xTlWApBkdDPQbI8L3yxm5qhQfDNnlCZbn7ouGrES3B4GhRkQES7TdrJ3ippMd5cjnNTa3WLmTNDAwOjwINkDV7VuRxtnPZ1vUJ6w4gmVIMjoD2DZBhu+YJkh7uKYJpFdOrKcXgiGjfABmue+I36lPVucfPthTBwhx3OfycSgyOBM0bIAlK6pkEhwt/6Xl26oX5kuHYx1kq4AXmTyXhZqi3GCC9VRd8EOdp50q6TUsqtnN3rRzAfX+YoqO5LhmOf5L0uw0N3N0ZhkYV05bAAOmltuhDoXsefybpWdEchkmwaXCgRWKV3KmvOg2QvpoLP4dXkrZ7HLj+/NWJ1h6bCEf9lljvYcrTWQyQziqLPnBH91erLSEuerhiO7ZsMhzomhGbkbuzGCCdVRZ9AK8jz/akAp6PRXPImwAndFzOIlyCT+Zqldu25mhr47+6dV9nzRognVUWfQAn0RwANgUfVnglGVvu4Ty6byocdbtxmN15R8sAydtdd3AxNtpyZfvxlLzFJeXGCOJzSbr0kWNVQYzq3MfpJAZIJ3VFEx9QBZU5sSXVtyT98oSRX78n6eda6nWopBdEW1VWgti06tOewEKErE71kP/TFhsgeV8+DqcJV9CUN0t6UN6iOuXGTcV7tjzBHZXmuUGnjEdOnALH8yS9ylMvnGUAULIYIMmqSkpI/L22G4Oc6D4/KYdhEnHNt2168T+SmBbOQVLgYMpIVF2ChbbJgZJe3aWxBkgXbYXT/lbAMpeDKg6sppKQVfH1JX17qoollpsKx7+7/AD/Ri1549OYXcZkMUCSVRVNyF7701tSsf64QfTpYRPgasjnmXEPF6Jt2Br0z70rHJT0+uqG5v4tRXb2GGOA9H9xzSdfKekRLdlNvf6oq/RZSbdqqV/JEWf7wEETiRn/4pa2fq5y9YqVdbIYIMmqiiYkciw+dJvC3N93cBjNNGOC0gFuNrUvHOSzS7UpwuFgm3D94IpUvRogqZqKp8PJNHZWTem8MIwX1SuFz3HEVyURRbckWQeOuh1YS7fdxQEeLK2TxABJUlNSoi97OtpvJzipTipgzUT45fKdJN88sPOzZrGdH88BB4US3Xf7ltJZm1BGkhggSWqKJuL+xw88qW5bhT6ud1eiGQ2cgN2qLVvK2K8a/U4euOyU7HPBQVlMsRgtmsIltlAc96ukN0BSXls8TcjEpKRt1FOdD65mi+gwvtuP8dbnSZETDmp0euVuiZiPTem01WuA5Hm5u3usdC+RdL08RWTJxWf2jueVfbOU0C+T3HBQC99W799JelJqNQ2QVE2F0/ksZjtvK+apjjcXX6BQQrzh4A6brbFlCDhoA15jDm5pzMsCfsqultwAydMdfIC8z2MDlafU7rmEpoK/MUEMxKHgQDO+0RJTE3YWk8QASVJTNJEPkH/zbP1GMxwwAXVqC97z2Mou6+UDltvMekg4KIu1BtGD28ptO2VvbboBkqdH+ADB79Wv5CkiWy6vqO7EP6oltzEd2Q0NB807tvKWf0hLOzuZmxggefqdD5DSFum09iBJxD9sCrFL9syjjmAuY8BBBf5B0iNbavJuz06ejSADvvzQtVYuKl02YNlds8ay+KyWhzgjYeo1pLfHseCgea/zXHFmq3vvVKXZCJKqqXC6ECCYXXPKXops4eqzdUuFmLNzoYjPhZkrPCYcVN3neglv+xgzJokBkqSmaKIQICWdpNcN8R0Y1t9z8asGhZ/YLr1/DW+QY8NBO5hKYebTFP4I/G30jboEBkiqpsLpQtund6te1Jl5ismWi++GYagApmA1NDiBAJiUqFhTwEE7zpd0i5YGccWYq8ZJYoAkqSkpkc9YkeA5HE6VJMRKTO4kgYrjKRJoWNMADAv9i1bSTwUH5j3UrU06uf8xQPJ1W999EHZTHp2vmGw5cXp+w2y5XZkRgUhxVHd5xCEEYHGHfAhDTqZWTLHaZJsqLgttTxIDJElNSYl8V25LPCykQcRMJA568qlykhbSEg0JBzXg6nObg3BGt63SqviTVAZIF22F0/5O5Y/ppBx/tfJVKSknruFibMnUo/4ZclOalGkg0dBwUPRrJeFhvymdXZAaIOu+7iuf30nS5z3ZEebZN+Tnq0GenHBbhF1WDQvg3DRP1j9erww1rVqtos+cBisCblYmiwGSrKqkhL4LSaXcS09qREsibhwCDYeMNTht11lD+Y8FB3XFirpNOu1gkYEB0rfLtD93hiTORJrypipeIVOwpci1HDBAwwev9bhW9clYcFA+4e0IM9Emv1CFZeOMJ1kMkGRVJSXkIs7RLSl5KfiF5Z70UmXHBjSAg3Bx6a8H2q1q0+U7PKYk3DDEuV8nMUA6qSuaGLMSvPq1CfBwm81kOA2Eple9Qt8ZIPlf1ic8wVrGspbN36L55BiaXvUKXmSA5H/5oXBn+M1ih8VkGA34plfEq2+7JBathQESVVHnBKFp1lHVvW9cfZrk10AoUFAnRw2rVTNA8r8ocvxPd1LdzL3EG4bDaGD8XH1OGqgJF8GY4nYWA6SzypIeCE2zCGSDMweTfBpghxAL459vyfI0T8zIpNINkCQ1dU4UAgQP8Md3ztEeCGmA+x0EKWoT7t/juLuXGCC91BZ8KBaTvJPry/zVW1yOnL8werRZJjPVZXGOb4BeYoD0Upv3oRgcZ7vDtLylbnZuf1X5RX6GRwXP8QQ1StaYAZKsqmjCGBxjmltEK7uQBLu6GPBckGoTvvfFCUlSgQGSpKZoIoMjqqJBEuCR/oGenLNE8DVA1n9vBsf6OuyTg8/urc4Lz+4Yj64lBsha6vP6f61ztWnVevr1PR2bWv1NYF3SqUYGSCd1XSWxjRz9dbfuk6Gp1b+4KweEYFtbDJB+KjQ4+uktx1PEOQ8FRcVrIn6/sogB0l2NBkd3neV64gBJJwYye1515vGUXIWRjwHSTZsGRzd95Uwd8l5JORwWkubinIUaIOnaNDjSdZU7ZcghRl0W2734480qBkiaOg2OND0Nkeraki6NZLyWvVUobwMk/koNjriOhkpxO+c4O5T/kz1+ALLUyQAJq9HgyNLNemXyR5L+PvLk4IafBoj/DcTgwLM5rnyG8C3bq0ct6CFfdKjVJnIWst/QbTZA2jUcg+M893IMjvw99BRJ941ke4EkPJgMLgbI1VUcgwOvfeyYGBx5uycuTo+rdqK4Wx4STshZuI8iBshV1RyDg79c9zc4svfNfV0MFRxehOQLGf0EJzXCALlSTTE4uJ22j8GR1K9SE+0s6WD3iT2DjdVdYolyf2+A/ESjMTj4y3U/gyNb98OPbw0G/nJjMplvYwMkDscXna9XW3PEunH8e27+1WDEplN1brjzwWPiJLLpgMRGji+5oPMlw8FWJyHe/sONcATx+dokvclf6DVXwLhlYt0Ik4bT60n9GW8yIDE4cEJNrLuS4WhrA3AACZ+p/W+xZiB4EGu33RLBIBnBP4EDl6GTyqYCEoODiLV7zRCOZmcCkBqWsUYVHOPVUBAjvosQHgIvJWz3FiGbCEgMjq9Ubiq5z1zyyIGJxTM79CDik2AOjuf5c1zcdqZkuYSt7/qzbc9MT3Cjhi+MXc9s13ts0wCJwcFfWe4ULAkOXw/BT/BHHDTfkMSHeX/9Oz8vk7SDix7FzlP9e/PnOr3wnyVhWoJn9uJkkwCJwUHn2KNwOEJO0orrXJEKEYkWMN5bcsU3BZAYHN+UdLfC4WDR+ucld6bEugEFvnI/nJh+0mSbAEgMDiLTsttS8rQqBgd1J7zyjSXhHJvfS5Kz3G2/N0v6bEkVi9Vl6YDE4OD+MsEmS4YDH0/E1/MJZveEN8YHVy1bVReNHuw+BK4kKu3YgvUBQHANdurt5t5tXzIgMTjY2SHu99zhYLQInRds5+JjAAq7c6Fwzb07kiSmqZ90+vyQgyN2VXad8kZ5dqmAxOD4rovtXTIcR0o6PNALmKowcnQ9TNtFEp9bSeJUu/5cJ6HHXbSyy8VBKtvGNRSzmjoltPXHSZYISAwO/qrtXvjI8ayI2346IyPHuakvOiEd0ZmuK+l6Kz+3aGz7Xp6Qz6KSLA2QI6q3AyA+4bINF3JKHjlicHCbETgsWu4IKC4JkNjp8hWSCMNcMhy41MS1pk/Od9Mqg2MEOJY0xYptg/7AzbtLhoNoSKEQ0cDByLFWQJiR+tViilnCCBJbzP5QEv6V5gwH9+CBgwWxyYgamDsgsSkJqsSitGQ4nivpsMA7x3iP3SqDY0Qw6qLmDEisYy0FDkYOtlNNJtDAXAEJxcWu1Vj6yHFUxFU/HlQYOQyOCcCY8whCDIhDIzorHY4Y4MDByMEdDpMJNTC3EeQFkv5k4XBwkQk4uNhkMrEG5gTICyt7nyfOHI7Y6IfvLaZVBsfEYMxtinVMguuX0qdVKXAwcnyskL5h1ZiJLRZ+kfClFJLS4Xi+JOJY+ATTcOD4qPXKsjRQ+hTrJZIOmjkcsXXThW5aZXCUxcaPa1MyIARPIYjKnEeOFDgYOXCeYFKgBkoF5GWSHjtzOI6W9KRAG3BpyoLc4CgQjJIX6S93rjTnPHKkwMHIcXbBfcOqVuAUKyX0VukL8th2NP6ogANHBiaFa6CkKdarJB0482kVjpb/ONAGnGEzrTI4CgejtCnWqyvv5H+wAXAwchAIxmQmGihhBDlR0gEzhyN2kIlTZkYOg2MmYJQygrxG0sMWDgfeP4BjFp4EZ9Z/B6/ulCMIvlkfOnM4jpV0SKANwMG06szB36QVMIgGpgLk9ZL2nzkcMROY/3Ujh8ExSNcdJ9MpACF6EFOOkJS+lZsCByMHHgZNZqyBsQF5o/MXO2c4Xizp8YEGEJ0KOD44435hVXcaGBMQAqU8aOYjRwwOolMxOhocC0FsLEDw8v2AmcMRsywGDkaODyykb1gzRjI1eWt1Q27fmcPxUkmPC7Thq27kMDgWhtXQI8jbXAjgkNpu38ND+ZivIQUORo73j1kpK2scDQwJyCmVKfd9I83AV27JfmZjd1II+gkcsw0QM043m28pQwHyzsog7z4RteBlvWRvgTE4vu6mVQbHfPt/tOZDAPIuF9EoVPhuhTtEi13YAg5GjjOiGrYEs9ZAbkBOqw7HCPUVkjsU7tbmOEmPCTSAcNHAUXT44ln3yoIqnxOQ010MvFDzfr1wzx0xOL7hplUGR0GdeMiq5AKEqcY9IhUlmmzJV0xjV32Bg5GDPwQmG6KBHICknHMQh7x5F4Lgkbd2UVcJW4xxH9avBIjh0G1MeYWkRwUKJIIrJ+QGx5hvpYCy1gUkdsWUJt5txdybyKq4D+XgMBSOmK3fEyThcG1oSYGDkeM9Q1fE8i9PA+sAgs8qtkJDcvcVi1aCa3Jf+wYd1MBfbJ4byio25iTiW25axeaDyQZqoC8g2zrX/KFRYM8Vu6RYLIyQ6i9zZyq5zxticHzbTasMjg0Eo25yX0CeIolO75O9JZ3qvnxHtTjn3+vKTSuvJ/iwzSGvlPSIQEbAwbTq3TkKszzmq4E+gFzbHfLt7Gk24ZjrWOUxH1FdNIfjA4JxMu1ZR2LuhS5yI4fBsY6WF/JsH0BCa49VOB7uFtohVbHwxQUn1rA3qQ7f9pC0feABzOZjd0pC5cXguNjBgTWAiWmgl/Nqn4UuW7SckrNdi5xc2Vo90KPjT0t6WpX+7Y3vb+QcVh8ReDc4euBOe1c5XtIfBh4CDqZV9dSwa/6WfoEa6DqCsCjHdWabrI4e16+2czk7aBPgoCOGQjMzRfNB8pYAeL5XFIPjO27kMDgW2MnXaVJXQB4tiRPnNuHQ7zz3BYdqOGdoE6ZomHTEJDQCbV1tGXOynSIxr43AAbBYIJuYBq6iga6A+ExKMFvHfL0WXwzzz0u6ReI7wDTF54nwnol3MDhsZC3kk0scHOy0mZgGrqaBroAQZJLFdFPYrVqNPuuza8LRWsi5czPfzzhzlOb/pwASg+O7blplcBgYXg10BeSHnpxwPI2P3VreVN0U3K8l7eo6JeW1fE7SzVsSxgCJ+fsFDqZV3Ho0MQ1kAYSRgxGkTZpXZ31Tsa6A+IAMARKD43tu5DA4DIyoBrqMIJiz+27QNfNhukV8vqZwEs6JeIqEFvpbSmJbtin/KOn3A5kDByNHc3s5pT6WZgM10AWQ0AjySw0TdRbsH/foM3UU8a0hmhsCdTExT/GXOjg4xzExDSRpoAsgZOib8rR5J+Gcw2eOci9JPiPAa0k6PHAOwgZAM8BnDA4MHhmRDI6kbmGJag10BcS3i8WCnHOLVXmqpOcEVM13r1tx+8O0ibXF06sziTsFnrt3w4gwFkYBOJhWcbHLxDTQSQNdAfEtvrkXclCj5C1c0Jg7RmrE7UFi9+2eUHO8jax6OIzB8X0HB6fvJqaBzhroCshhkjgEbMoFnu1Y/nK/oXOt2h/ASdtdq0U4W78Io89DAnlf7qZVBkemF7CJ2XQF5M6BUGI+E5KQXVWqztmx4kS87uyxADzAAZxY/5qYBnproCsgFMR0aIeWEs9x1rxtlVkHkgtdeOj6RmEMjivcyGFw9O4W9mCtgT6AhGJkhLZwgQRz8zZTFd8boZOTZ+2ilOkaI4NPgIPvmxsG9sZNA7000AeQnZwRIffS24RdKN/uFWbwBzpQdg3UGPN0rHBX76HH4PiBg4NAPSamgSwa6AMIBXPZ6dmBGsRspXj0ZisfwDnf3TnntH31Wu2O7lS+zbarrsL/u2mVwZGlW1gm60yxeJZ76cT9xgm1T5oGjH20zpnH0YEDR/IEDqZVGEiamAayaqDvCEIl9kk4meZiFB8W8F1kG0l4TmFbOSSc7AMHwUFNTAPZNbAOIFTmSGcWEqsYkOCggSutbUaG9fN4LdnLHTrihTEmmI8YHDEt2fe9NbAuIBQcuhrbVjEW3pye8+G663aVh0aMHYmNnrrDxU1A/Fqd1Lvl9qBpIEEDOQChmGMkPSGhvBxJPirpyQO6I81RR8tjIRrIBQjqwMIWW6khhe3fQzs4bBiyLpb3BmggJyCoa39Jz3DTpZzq+5QkDihjzrJzlml5mQZ6OY6LqQ2zdaZA3Crk93UEr4svcnBwj9zENDCqBnKPIKuVv42L9cdV3dCpeVuDudiE+092qMYOpjPqC7DCytbAkICstpzdKUDh5iG/1x/KZ5SoP+e6XbEvl602q92maGAsQDZFn9bOhWnAAFnYC7Xm5NWAAZJXn5bbwjRggCzshVpz8mrAAMmrT8ttYRowQBb2Qq05eTVggOTVp+W2MA0YIAt7odacvBowQPLq03JbmAYMkIW9UGtOXg0YIHn1abktTAM/AgiZmAUb8osjAAAAAElFTkSuQmCC" vertex="1" parent="1">
          <mxGeometry x="373" y="198" width="25" height="25" as="geometry" />
        </mxCell>
        <mxCell id="Nct4pxDYZnbTAuoAgPJD-20" value="" style="rounded=0;whiteSpace=wrap;html=1;dashed=1;" vertex="1" parent="1">
          <mxGeometry x="660" y="185" width="130" height="80" as="geometry" />
        </mxCell>
        <mxCell id="Nct4pxDYZnbTAuoAgPJD-22" value="*.java" style="rounded=1;whiteSpace=wrap;html=1;fillColor=#999999;" vertex="1" parent="1">
          <mxGeometry x="670" y="192.5" width="40" height="40" as="geometry" />
        </mxCell>
        <mxCell id="Nct4pxDYZnbTAuoAgPJD-23" value="*.java" style="rounded=1;whiteSpace=wrap;html=1;fillColor=#999999;" vertex="1" parent="1">
          <mxGeometry x="705" y="202.5" width="40" height="40" as="geometry" />
        </mxCell>
        <mxCell id="Nct4pxDYZnbTAuoAgPJD-24" value="*.java" style="rounded=1;whiteSpace=wrap;html=1;fillColor=#999999;" vertex="1" parent="1">
          <mxGeometry x="740" y="219.5" width="40" height="38" as="geometry" />
        </mxCell>
        <mxCell id="Nct4pxDYZnbTAuoAgPJD-25" value="" style="shape=image;verticalLabelPosition=bottom;verticalAlign=top;imageAspect=0;aspect=fixed;image=data:image/png,iVBORw0KGgoAAAANSUhEUgAAAMgAAADICAYAAACtWK6eAAAAAXNSR0IArs4c6QAAIABJREFUeF7tXQl4G9XVPXdkxyQhbAlQ1rIGaMy+73tZCpQljjVKYo+SkFAKLTtEo/woRKNQ1gKlkECsURaNYgOlZSu0UPayFwqUpWwp+74EAomtuX/eyDYjaWxLtiTL0tzvy4eQ3nreO5557913LsG1PhGQZ+njYGInEHYEW/9dD4zhAA0n4uHMGAGI/7f+fQPgE/GPmT6RiD9h4BOJ8Ilp4lOW+BOqqXvJCPk+67NiN8GgI0CD3oIya8DEC27aNDms9pdg3ptAOwLYCYBU8GYSPmITLxP4JUB6SSLzpeXt5st/uWzq8oLX5RbYbwRcggBoDLTs5iHpMCacDMa+/UazIBlpGcDPAOYdHbV0b1vI/1FBinUL6RcCVUsQORg9mpkOJ+AIALv0C73SZHoU4LtM4MGlmv+J0lTp1tKFQFURxHtRdAuS0MCgBiLsOQSnwX8JuB/MDy0ftuovd4RmrBiCfRhSTa4KgviCC48Fmw0MNAAYWYARShKwgjv/ic8AvkPqv5sQsAnDWrgXzRh4G8ytDG5dGpnyXNEqqvKCK5Ygk89buEHHsGTzAJ8Wn4HxChNeIfArxJ5XQKtejWvTlvU1bxpCN683LOnZxGRBGNqE2SJNJ3l4U/EdgDF9lZPL7wz+M4GWduw8orVtwoRkLnncNLkhUJEE8amxMxh8FoCtc4PBnooeIOI7k0m6a+nc5tfzz597joYL563t8dQdQBL2B3AATBwAwkDG5FUArZDQasxRXs69JW7KnhAYyGCUHapeNXYSMZ8NwoE5N47wBYD7xD/21N2bmC1/kHPeAidsOLt1uGfkd3sTY5/V7dkPIEGc9fpTDRNuIJNuNCLN/+5PfjdPCoGKIIh3Zsve5JHOAsOb88ASHiGmVs9Kal10RZM42Cs7OyQUqtkkucXeZhL7gGhvAv8iz7XNSjDf6JFqblgcnvxa2XVwCDRoSBNk4sWLNzU72s8GSLxO5XKYJ065W8Xi1oj4/zYExietib6LWrZiD00AqDHPrWlx+HhDB0k3toWb3h5q/R7M9g5ZgngDUR+IwgRs2ReABDxnAgZgLk1oU97tK/1Q+N03M3oyJGkCgwVZcjOiz4j5RrMmeUNi9tRBe5XMrbHlkWrIEWTixYvXMpPJMJjP7BNCoveI+Zr22neubQuFVvWZfggmEH5izNRIJjeCMDa3LtAyBkcSmjI/t/TVm2pIEcQXaDmKSQoD2KP3IaNVDL7W095+zZLLTn2vGoZ3+vR5td+uXzeBAfFEOT6XPjPzbbXDPL9aFCrPNVgufSh2miFDEG8gdjERh/oEhLDQNM1rqvnwrHFWdE+PiXM5tVbpy74DpKChNf2+r4TV+HvZE8SrLtyDwGGAj+p1gIgeAsxLjbD/r9U4kE59lgOxSSC+EEB9n5gQPWSEmw/pM12VJShrgnjV6GkE+h2AtXobFwLCY2vfuTgUCplVNn59djcU+kfNa+3vzAHThbkcQhJJp8TDTbf1WXCVJChLgjSErl+ztn3k5Qyc1ts4MPAEEy5eGlbEQZ9rvSAgB2I7gcwwQH2uT0ymY5dGmu9xAS3Dg0Kv2rIfwXM5wPv1OkDMl9cNw//pIf8P7kDmjoBv1kIvm4IovbvhGJpSln88c+9pYVKWFQipVypJkGPNXrr3L4no/5aEm+8sDATVWYovGLuEmWc59Z4ZbyQiyrbViUx6r8uCILm+UhFwY3vHiIvafjfha3fwBo6AHIgeCaLs11NCwggr8sBrGPolDDpBcnyl+oEJ5yXCyvVDH/Ly6UGn1/N1WS0iPsbdDUyhMqgEkWfFJsHEDb29UhHhaTDOi2vKw+UztSqjJbIavR6g0zN7464/fkRk0AjiVfXfEHBNH1Mt2rGi47y2q6cJl3TXCoyArOr/AJB19uESZJAJ4g1EQ0R0cS/jbXa+Ul1d4DnhFmdDoKdxYHBTQvMvcsEahFcsn6pfw8BvegH/JTCfMxTd0YfahPIFo8cy013O7eaZdbX4fbVvo5f0FUsO6ItAmNTTRCLg4SRhytKw8mahJ1vD2VcN94xcd29iGg2iMTB5DEkYbTKNIcJoMP8ossB8NwF/i0f8zxe6HeVU3qTAvI2SVNeb2/ubBBhkmsaSuVP+M5C2T583r/brZbU7muT5uE1rfn8gZZUyb0kIcmIous7wdloM4Bc9dU4IDyQ0/4mF6nxj4OZ6Is+uxNKeIOvQcfd+lP0OAcK361FPDT2yaHbz//pRRllnkVVduPJc0EcjGUDCJIovzfP8yRfQm5h4BkAC/7rOegTxrBudS8r8xL7oBGkI3rRlDQ9b3MfJeNTQlCkDmUkT1eg+ScbREkm7MFi4wwvVkIIaE81Z65Mf5syfP6O9oAUPcmGyGn0VoO1yagbRkwCWGOHm7O3hjALkoG70eQ2a+UmQ1MpItpXjZbaiEkSIENSMWCHUAIW+raMxcEVCU87PaXAyEvlU/SCAjjJhHk2g3fpTRv556HGQOafSzgnkoP54nrKrQnx7MdfyNYmQ/51MHGVVF08l8XTK1TqvQ3tajcjksrkOXVSCyKp+E4BpvSA03tCUW3NFUKTzBWNHgPkoEziacnHjzqfwfNIyrpRqay5ZMnuSGNiKMDmonwvGFXl3hvEXSNI1RrjpAZFXVnVxCh/Pu5zODMx4DITWNWq5VR9kbeKiEsSn6lEGFCegpPb2zXK97SduEoKkY8XTgsG5vQr0d3Tyy/c8ofbEuDaxTyG5/IodvNRiZ8tkOpkIJ4HzlBwivMgm30YkvLBpw4H3gr8gUCuYWuORZnFmU3IrKkF6Oe940NCUQ3vrbeqilCmkQsXCftzAkeGvCdb781MMfkoCPjVZWtFhtq+ok+q+W5msW7Hul1+u+G6jkRtyR/u+JtO+JGGfHF47Hu3oWHlc2+9mVJR/mByIb0jSqpOZcfLqTQoh8D1gY+bZINqIGKfmcjclrULmhwBpsRFpvnnADcmjgKISRA7ctCGo9mkAm2W2iYkPTYT9D9q/P/Pau+s+/ejjmUQkSNHHvfM+e/kUA08B/FSSzKfawlP7pQvlDUYPIbYONXu8bVfoHbg+e1biBEJ3TPLQScwkyNJfL98lhqZYW/wNDa2emm2/94P4VAB75dmdB4e3J09oKVEclaISxHofDegzQYg4gND9FPEFF57MZvIsEOWuiJhRoHDRJvA9JqR7inHZp+/Tf24xNP/UPAd7SCUXQnYbrdriZEjW65cgy7AcO/BFB2gnp/OPxouie3okamaCIEuu5YFhbl6KXa+iE0QJRdf5oZ2eJmCbbDCpBeB+b+8ScA+Y7k2C7l8aaXopx8HqdzLxNJFYurHHdRDhSiOsnNfvCoZQxsagvrVk8slMdPLqsyIhlepoIlyDaeLaxFzlL71178SzousMH86N7JEmE1taxX3Zm4amOMypvrLl93vRCWI9RdTYOQBfmV/TslMLyX8rPgbwQE2tdP9gyNVMCizaLUlJMdiO5ywEzIhXmd6UHFx4GMzkiQw6hij1h1D88WKm2/qzZvAFYoda8kXE4pWs53AVzNcYEb9Q1SyalYQgx4fmjVizve6pfi62TTBuYYnaEuHmW4qGRB4Fd65LbgewtkO2Zw1NGej6KY/WlFdScfe9Y9i3b7WFfv3tQFs28YLFm5o1HUIQz9/T3KkFbbqwiK4rJSGIAKrHyzk9PpvpBWa+JZnsSLRdOu2NgYJd6PyyGj0eoD8B8GSWXY1PkULjay9v4szFPzOljlYnkjht9hSyLSUjSENrq6fmhRViR2vXXjqwcrWG0y3E0qJ4pOneQna0GGV5g7FLyPled1U/RYqDtbWbmH0WwnRqf17jcm1jyQiSeopERXxA8Zcg055lQnStmpXR+UMo7p44KwCtegXAupkdYpjehDZlaa4D4abrHYHO11oHgvAFRsR/ebHwKylBbCTpuub5PJiiQznIixzQrwDh3CyCMF5PRJRyOvUv1hwqSbk9EUQiOr6YCjclJ0hJ0CxhJdND80Z8s2rYF0TU5cr9Y+0MIZz9+47kypsr7aS9hBBbVfmCsSXM7MusVzJrxi2ZO2lAd1V664tLkAKMtE/V5zAQ7KMog4nnZ3oPFKD6ii9iygULRn1f63FyCv20rpY3L+atR5cgBZheeXrBvg7G/Jph0qLBOMcpQHdLXoQvqJ/NjKsyKybC9fGwckYxG+QSpADoyqououH2x0fJYMaCREQRh5+u9YCArOpiI2T7rJ9N6RBjbtNDxQTOJcgA0ZWDLYeBpYFOcOupwmS2lsK/aIBdLml276xFB5KZdNJE+4ehKYcVuzEuQQaIsE+NJZzjBNILAI/px9Vfg0haHA833T3AplVEdjmoLwJnC32QidPjc5Ubit1JlyADQFg4Yq5spy+dijCl5C7DPdKylR3cCPZMADjfv3avAxztSCZv6Y8ngeV9LO6ZE8RV5C0AfADGhyBu7Rg9cl7bORO+H0DXS5K1aWZsdLvE4mpvhvHHtaY0buHc5s+L3RCXIANA2BuIXUjEl2YVQfinEVbSwjdYnsCgCcxWDMH18qzWYFBbQmsWri29WmfM+NtWv7Jt3HtKusnD0o2LI5Of66vMwfrdF4z9lpmzQ8MRXWeEm3vTVitYk12CDABKr6q/5RyGmhRDa445FT0psGijJAkHPJqQw23FzCJeZ+Y4eegWY47ycuaPIpDn8vXr8ozmy4+D+YaOYWu2toUm5Jl3AODlkFVWdXGFIes2KZt8UGKu/5EcihhwEpcg/YRQDiw6EpR0imz1g6Epw3MptjEQO8ZD3BWZNqc8tnJvJYlvGevZ4pZQ6NAO8b0voP+BCb/OpW6HNF8x+I8s1bQunTP5hX6WUbBslss7sSUCYTdx3SGuKQW5ApxLY12C5IKSQxpZ1YXr/SkOP/3e0JSz8ynWd1HLVuyx1ini9WuXfPKu5oXYAbuVJX6bmAoT95xwOxEvbX91ZFtb24Rknu0pSHI5oMdAaMoqjMzTjPCUeQWpJIdCXILkAFJmEjk0bwza6z51zGryDsZc/6v9KNbK0jgzerJHwoQcQzjnUs0dzPwckTQd4I1yyWBL818AhskdbUsj04p+Y7Or3tRraNJJEvVDStaOi1860XFjJM++5ZTcJUhOMKUnkgO6CoKI85fx/OeHjLC/IKGU5Vn6OJjofKrkqHro0BdJ4r2WzPGLawbwBvUTiGnGaiGLY/PvNrWBzJZSCOb1sji/xgg3F/UGYdaQ5g+Um8MX1JcxY3MHJHyGphiFREgIJWyS3GqCmTTFzboT8imbgDvjmpIV1TZ1nxx+EKYDWD/PMm+Ma8qv8smTb1pZ1f8NYMfMfJKJA5bMVR7Lt7yBpHefIHmiNzEQO8YkdjrE+9rQlHXyLC6v5F51wR5ENRPY5EYiR4KmlUeQmuJaU69xPnyBqBdEfgZ+nkdjLjM05cI80uec1BdYeBSTKQTDM+1vhqbk08ac6+wtoUuQPGH0qtHbCfRLh2xFmzSZdZ1wwYJRaw7zdJ2pHOnUBQK9MXrD9euv+82x4pZmnybkdyQPvAAJlZm+iU7S4V1So30WnkcCWdVbAOsOepox8fRE2C+kbEtqLkHygLshFP1JTTt96Dghk+bW8UunvJVHcQVJ6lX1Owg4LqswxlwjogTyraTh7JvXqxnh8RKokYGDeszP+KcRST8MzbeuzPQ+9eafMmqyhLAZeD/ZMWLcYEQ3dgmSx6jKqv5/qxVtZmdmIeC+uKYclUdRBUk68eLFm5odHWJ3KUtdhZh3HWgAoIlB/ecmi6dK9l90AKs6akeMKuThohyIng+iy7LwJVwdDyvnFAS0PAtxCZIHYHJQf9/JhYOIT4mH/bflUVRBkvaiN/YnQ1OE8mFBrOdYhtKeCa3pmYJUYumnRZ9frRSzc1Z5Eu1nzGn+Z6HqyacclyA5otUp8+OkDvipoSkb5FhMQZPJgegTINo76y8usxyP+BOFqsyn6jcwhGJ7unnYs/HiyGTHV8586+4ZX77X0PxH51teodK7BMkRSVnV73QKISeiTiXCzeLVq6TWy27aK9vVvlMfCoXMQjVIVmOPZUUII3xghJWCRfHqya2dCdMSYWVBofqSbzkuQXJAzKu2bEaQHOMTSjU1my2ZPUmIM5TUeoq9QsSz42F/qJCNkdXYcoDXzCizzxAWubbBF4xuy0ziVmamvTu8PTmuVEruTu11CZLDKPYkEMfAnQmHg7gcihxQkobgwi09bL5EwI+Rea0SiSXTU19olY+evGoB+nVNLd0y0Lv1PXsmDL4YuEuQHKaqrOofA8haZzDjuERE6SHOeA4F9zOJNxC9kIiy76EwWo2IIhweC2q9RQoD8BmBb2HytPX3XERWdeE9nBXHkiVpn8ScJhH0aNDMJUgf0HvV2EkEzt6hIrxnhJWswEClGEk5qD8DdgxrnXfMx1zaKwd1PxjiAK8ve5SAttEbbjAv1wNKWdWFR3SWKLlQh49rSj98xvpqYn6/uwTpAy9Z1e8BkLWLwsCshKZkOyzmh3/eqVMOh/izQ8Z/G5qSvUWadw3OGWQ11gqwCImXi30lJj1DmtfXNrAc1JeChVNmhhGmGGElmktlxUzjEqQXdFP3NKQ3nZJ01PJGbYMQgVVW9cUAJma1iRE0IopWzMniVfXrCMhLh4qBJ4gw32my96zVzMtq1vGMW3R+03fF7E8uZbsE6QUlOahHwJjpkORWQ1PG5wJwIdOkdnuklwDODFW2iojr42G/uL9RVPMF9CYmy5tACEHkY98S4SYTbJ0lSYz1exAyB4guN8LNIs76oJtLkN4IoupCNSNbYIH550bEX/Jg973s9iw2wsrkUs2myectHNmxhinu1ItXo0If4v3AEu2XmNP8r1L1p7d6XIL0gI43GBtPzG0OP5ckNp5Ts3ra7QGkEwyt6Y7BmFAT1eg+SaYJJFEDmDcdcBsYmhFR+tI5HnA1uRbgEqQHpGRVF0+IbHEAoguMcHPR4lH0NHA97fYA9IyhNe+Z64AXK13Dha1re2q/m0BM4qnSX1GFVwxN+Vmx2tifcl2COKDWGIqNldrZOa567bD1jZDPQcysP/DnnqdnBUdcaGhKlgds7iUXPqWsxg6wXr/InADQhjnWcJehKdlu+zlmLlYylyAOyMqB6GUgOt/hJ8PQlKwYFcUanK5yJ85s+ZkpicW5CB6bZt9xkusTl/qz7lAUu025lC+UETs8LC52iadKT3f13yLwRXHN7/Q6m0s1RU3jEsSJIKr+NYC1Mn8i4OC4pjgJKRd1kHzBaIiZLnaoJGpoSr/jzBe10RmFNwYX7kBmcm+A9iLiTcH0JEn0JHk8Ty2ZPckp9kcpm9djXS5BMqDxzYp62SQn4YXBeT9mJjkYE0+P7Hdz4mNKoTJSFjN1kBrhEiQDeFnVRaDIrNcBYj4rHvFfU+px8qqxRgJn3+1w0P8tdduqoT6XILZR7tSichRIo+SK9eKXnl4ywbKuZnkD0VuJyOF2IJ9taP5sYedqmLUl7KNLEBvY3oB+FRGyZEMZ/OeE5j+xhONiVSUHYjuB2EEnl77kmmH1idmyk/pgqZtZ0fW5BOkc3oaGVk/N2BVicT7SacSFsgaBFxma38n1pCiTRA7qYTDUzMIZmJ/QlBlFqdQtNA0BlyCdcMiB2CQQ9yqy1pn0ewZfnSTPzW3hpreLNZ8aQq3DatpXiNe9rNiHzDjCjWtYLOTTy3UJ0kUQVRfxJg7IC3bGXyDxDcXYSZIDLZNAkhNhHzY05eC82ukm7jcCLkGsuBrRXZgoyzlux7GjsfcuP8G3K9rx0JPv4cNPV/QE9FsM3ID2ZDxx2dSCrAvkoP5ncLYWLxPOSISV6/s94m7GvBBwCSIIourXMJAW0mu7rdZF80k7pIF5c+vLeOtdsUyx7FsAmUIGADhGHikWv6RZbBf3y3yz9N3ZhJPe1CcdplnfNneKc+iFftXmZuoNgaonyJnX3l332cefiFlfZwdq/NHbYLdx6dfQ7QQxkzhK8nA9iMb3EErtcyLMqklSa77BJmVV/x2ArPsQDPwhoSlnulO6dAhUPUG8gahCRGlXO9dduw5nKbuitkZKG4mrWv6Fz778HmJHK6Eplmt3p/ynCBWWtZi2MjOSRLi+w0Rraw7S/dNDd4xYvurzl0HZF5JY8hyUmDO5JLH5SjcFy7smlyCq/k8C9rEP00F7boKjD/pp2siJVyvxBBFGgB7XFEuB3H52MnqdNazfv/u+HT+szI5cxoz7AYonhw0XATPFK1qW+QJRhTMIa/GMcX8iUrrYfOU9bUvXuqomSEryn57KhPvXk3bCJhumLy8Sd72Of7+a8nIn4l/Ew/677SfvdcM8mDJ+HDbbKJVv0e2v4pU3v+hhJPljMBYyma0JbWraWsOn6nczcExmRgZmJDSlMDEISze/hnxNVU0QWY1dD/Dp9lHcfqt10ZSxOBdPg0v+0C3P9JShKZYerqzq4m62JTt6wuFbYZ9dfpI2IQJXPt71xGlfPelFAQ7byPQaiG/p+K7jKmmEZ6wEchJpfr+uluv1kF+ohbhWQgSqliANodY1a1at+AoEjx3vhmO2xa4/S49K9sjT7+Oeh5dZyRg4P6EpV4RCIem19i3EQd4OI0fU4ixlF4wcXutIEADvGJqypTegH05COodIqJJk7oB1APQ+wOnvdpZeIq6ORwZH/r+Ec7Esq6pagsiBlmkgKS1i0XrrrIFzp+wKonRYrlzwHD7/6gcxgN/W1NC4RbOb/ydClzGl3OLFk0M8Qez2/sff4vrFItSetX54OhFR9ko9dWKnA5zXOYYE3neJ5n+iLGdQhTeqagniC+pPMSPtLvfBe22Cow5M/wP+5v++xoK21OIcoBZDa54qPvmCsVuZ2fKyPbWxHltumn6/6va/vYmn/i0US61F/RVxTTm/YWbL+jWSJF6hthbfi4PI2lqPdbby1TfOkdLKRWGwwnnQY/eqkiDyrNi+MDm1QLDZGZN3xsYbpPsqGne+hhdfE+o/1ruOdUGpcdaCnSXT87z4aqvN18a0hnFp5TAD6lU/Fm8StlkaVt6UVV2cbYgzDozdcl0oJ/94ELno9lfwypvZ3vTE7I9H/Hq1TtDB7ndVEsSr6vMIVgjkbtth6/Uw+cTt08ZDbNdqf7RCjIu1xxMJTdlXfPaqUY1AVvy/Xx6xFfbeOX1xLp4c4gnSad3RWWVVFztWu1tPoOO3Q/3Y0d312beRu79kvDNq2Ohx80PH9+jjMtgTqNLrrzqC+C5asi572rP2Xyccuy122SF9cf7QU+/j3kdSi3OAzzU0/1V2L9tRI2txln9XDK+rSZsnYu0h1iDCTJNPWTrXf5t3pn4CSSlN3Z+MGYHfNO+SlseRIEDJIudW+kTvb/+qjiByMDYDzDfaARu9rlic75aF4eU3P4cvv7YW599INTXjRKAcu1v8vrtuhOMP2zItn31xDuBjQ1Osx4tdU/fI/TfHofuka6zd/dA7ePSZdD9HSmKP+KXKs/0dXDffwBGoPoKo+nMAdrVDd8jem+LnB2yehuYby75Cyy3/6fruZkNTTrUmus3Ldrq3Hlts0svivDPaU+PM2FiJ+CUQaj0S4bfKLhiz7vC0+mZf9yRWrrKdvjP+YkQUp3jsAx91t4ScEagqgvhU/SAGHspE57fNu2DDMenBmuJ3vIaXXk8tzk3CUUvDyn12L9ttNl8bUzIW58kkY9bvfzzn6wpy6VX1IAFzRFniNU68ztnthVc/w9K70iOQETAprilLch5JN2FREKgqgshqdAFAaTpSP9tmPUz6Zfri/JtvV+HSeV0eIPS4oTXv3/ma1O1le+KRW2OvndJFA9MW54zbjYhyUmc+cSCyo/gsNgLEhoDdMtzoxU+vj/p0Zf38+TPaizLqbqE5I1A1BJl83sINOurM1MGEzRp/MRY7bz8m7bsHn3wP9z2aitlJRGfFw83XTA/NG/Ft+xovMXjLtdYchnOn7pbl7WtfnEuEo5aElfu8M2PjSUqJYAv/LuHnZTfhHSy8hO1GQDiuKbNyHkU3YdEQqBqCeIP6r4nxBzuSY9YbjnP8acsR6+fLbnq28+BOqId01CdmT/3A7ha/324b4bhDe12cv2VoinUYaI/MdMxBP8WBe6ZHTnZanEsS77Rkjv/Foo26W3DOCFQNQWRV737N6UJH7CSJHSW7vf72l9Bve8X6yq4e4lX1u6nTy/Y0eUdsvvGotHz2k3MwX2BE/JdnevsKf621R6Xdy0LW4hwYlOA8Oc+YKktYFQSxnAQJf88cW/Ga1HWHo+u3xX9+Ff95I3VMQkRHxsPNf/fOWrg3mablC7XtT9eBf3y6Cmh7u4mLr7W5SnUqwHuD0UuIyXpV2qN+A5x81DZpTXBanIPRaESU1iqbh2Xb3aogiKzGdICb7aMwbtvRmHjCdmkDI848xNlHpz1qaMqBqdek6JUAnSM+n/TzrbHnjr0szoElhqZM6sz3KkBWJf5TfoZtt1gnrT6HxfnLhqbUl+1sqcKGVTxBvBcv2Jg6PO9njm2mq4f4/R9PvIe/PZZanIPoN0a4+bqJFy9ey+zoEG7tm609ahguOHUPZDj7Wl67XSfnbPJBibn+R7yBqI+IrG3an24yCjO81iZWt336xfe4OpolpHKxoSmXVOE8LNsuVzxBZDV6FkBX20dg/fWG42yHxfnv5j+Dr5evEt63n7fXcr2IYisHYtNAbLnFH7D7xjj2kPTYle9+uBw3xLvX0y8ammJtU3nV6O0Esg76jjtsS+y360Zpk8BhcZ6EyfXGXP+rZTtbqrBhVUAQXRyHp+n3HLbvZjhiv83ShlusO8T6w3p4ADfGNeVXna9J9wF0pPjs5O2btjgH/drQmv84cdbiHU2zw7oMMmJ4Dc6bujvWqEu7l+W0OB+U4DxVOOfz6nJFE0S+KHo0PHRPJiIXTt89azcp7Q45mYcb4SkPTJyl72+aeFTkH7vFOlBOSV9m1g81AAAWUElEQVSc/7AqiUuu676Ki46OEeu0/W7C195g9FJiulDkc7pM5bg4Jz7JCPtvz2v03MRFR6CyCaLqi4Uyjx1F4WIu1h+9rAe6pT3tgnKnHLUNdq9P18myn5xnbAm/RYB1UOLkr+WwOH/e0JTsA5miD79bQV8IVCxBfOrNP2XUZMXuazpxB2y/9bppuNz/z3dx/+PvWt91SXs2hFrX87SveHn169ZP1lmrDhecal3jSLM0t3bwvks1/xN22Z6tN18bUzP8tT7+bAWuiVl3rX40RsCIKHP7Giz399IjULEEkQPR80GUFv11w9EjLE/aTBN+V8L/CsCnNbVS/aJQ0ydeNXoagW4QXx64x8Y45uD0xfmy95djXiK1OCfgiXjnZSq7bI+Tv5bD4vwHk1AvbhyWfvjdGvtCoHIJouoijPNYOwBH7L85Dsu4h/Hi65/DuKMr4jP90dCafy3yyKou1BIPFZ/FCfgGo9O9fe2Lc2b2JyJ+3S6CLfy1LpyeviVsMmPOH55Kd2snLDTCStoZTV+D5v5eOgQqkiATg7HjTOY77DCKs4vAaXtCSPTYbeGfXsGrb6XugjPxoYmw/0F51sKDYZoPiu+223JdNNvujovvVvzQgfD13Xpz34+qXTlmfmjGCl9Qv4o5FaFq/903xi8ytoSdFufMOC4RUe4q3ZC7NeWDQEUSxKdGEwxqtAOx03Zj4D0u7YGCjz5bgWt/XA88aGiK9cSQ1ej1AFmCck5XcZ984SP8+e9vpUjFuDrRqVklq/p7wmlXfH9m087YaP10AQiHxXm3CF0+g+amLR0CFUeQhotu3qbGU/PfTAinjP8ZtvlpuquHODUXp+fWOoJwejys3DA5tHCDjnZT6PyMWXetOpzfx+Lcw57dF0cmP2c/UMxULBHlf/jJd7huUUa4QcJ5Rli5snTD7daULwIVRxA5qM8EI2IHwkkkIWkyxMn5t99Zd5I+Ru2weiPk+8ynxs5g8HXiSycR67ff/QY3taYC4RJwf1xLCUr7VP3vDBwuPjupM2YtzhnLmcxxCW1KavvMtbJEoPIIoupiNyhN5lAotYvJbrfnX/kUrXenHjT2uBtyQH8YBMtJ8bypu0GoLdotQxDOuhY7KbBotyQlLXGF9dZeA+dNSxeA6EialnyQ/c45AwsSmjKtLGeF26huBCqKIF41dhKBb7OPrySi2JyxF4T6ut1it72C195OLc4JODiuKQ/b3eKdRKxFKLbIDSmdrNWeJ5+N+nTlxuJarC+o/4EZ1u6Xkzrjv/7zKdruSX/r67rn7s7F8kagoggiq/otAE6xQy6u04prtXZLl+bhBwzNb70a2QXlfCdsh/ptfxR2E7//818f4o4HUoFt7ddiZVX/BIAlqiWeHuIpYrfMxTkzHktElPwChpb3PKrY1lUMQeRQdHu0U+oqoM2cdHP/+vAyPPx0pwc80WlGuHlegxrbpAYsFhfrOL0miSLT7pxLNTstmTPpRTnYMgMsWTpbTgIQGTpZVssY+G1CU66t2FlVQR2rHIKouojTIeJ1dJvYZhXbrXZb1Z7E5Tc9Z0WBAujDjtr2+rbQtC/sbvFOV3HTRKxtmlVyUH8YnFqzCHUUQRK7OZycf97R6UpfQfOoYrtSMQTxBfVlzEi7YC6EFYTAgt2efekT3HrvG12vSdfGNeW34n/kgP44CJb2rjgBF5ej7JZ+5zx1LdYeocrpjokg49wbn0lfnDNuSESUtKA9FTu7KqBjFUEQOaBPAGGpfTyEgmHoN/vA40nvYvTW/+C/73QFakoeaGhTH/UFFh7FZP5V5HcSsU7XyeJlhua3HLNkNTYfYEtx0cmNxU7GrrZ1ndZXwNypii5UBkGC+p/AONE+YsI1Xbio2+1/HyzHjUb37b+/G5piXYSS1dgCgC1BORF+Texg2e2xZz/AXQ92OwZb12IbGlo9NWNXCOnFtS03ll/tmRVhyuHkvPu0vipmVwV0csgTZOKs6I6mSalQTjb7lW+n7oCaXV/f9Y+38dhzH1r/yyRNT4Sbbup0ixeL8zWFwolQOsk0++IcJu8grsX6gvqvmPFHkdbJjSXjKq5VZNdpfQXMm6rpwpAniE/V5zAQtI+YCIIjrsfa7fsfOiBCqQlHw9VBobqDYvpU/TwGLhdfOqmuv/7OV9Bv7RSxZiSMiCJbT51g7AkwW8E8RQAdEUjHbnc/+A4efTZNrf2jWpPqF85t7ozGUzVzbEh3dEgTZPr0ebXLx9S9A8LG9lFw1M194SPc3ulguHor9/eGplhet96A/hRRKhSbenr2a5JY0Iu1hPXUAZ2c0Jr/ZNfJ2miDkTgzg4wiKq5wY7GfnBPQvSEwpGdMlTV+SBNk4qyFPtM00xTQazwSLjlrn6xhtK8HGOb+CW3K496A/gsi3CkSO13FFXEDhQxpyvg/hua3Yq3Jqt4ipK7EZ6edsqf//TH+9GOEKSu3JOGAJXOUx6psfg357g5pgvhU/Q4GjrOPggiHJsKi2c0evYmB+xKaclTqNUmPgdEkPjt5+z7yzAe456HOxXnntdjp8+bVLv9f3TcA1qipkXDxGXtn7ZRlLs4JuC/eWeeQnzFV1oEhS5DGQMtuEklZ0Zec7mGIuxviDocwIkyLh5UFjUF9a4khFudriGA250zJ1kxIu3PeGYjT7u3rJCf6zvvfYH4i5e3bZV11VtncqojuDlmCeAPRS4lS0jpdtvlGo3CaL13BcPl37ZaC4Q8rrcX5u1JNTf2S2ZO+kdXYRQBbQgnivrm4d243cctQ3DYUxuBFCc1vPWlkVRdyiNbFdhHKQIQ0sJvw1RI+WzZ7d/hayXEtF05dXhEzpso6MSQJ0nBV6/Caz1cIr8E0kdzxR2+D3calS/M8/tyHuPMfKQdDgK8yNP+5nRO9OxTbxWfuneXtK7xvhReuMJPo+KXh5ju9ast+BMlaR2y20Sj8KoOMK77vwOU3P5sZSu1KI6KcV2XzqmK6OyQJIquxZoDTYofX1kiY/dvsxblQHhEKJNZE75TmkWdGT4REfxLfOYVE++KrH3DFgpSINTOeTkSUvVKkiuoAWQILTjpZ9qu4XTOEQHvHtebuC+wVM3OqpCNDlCC6UEs82j5G+++2EX6REdRGuJQI15JO+6uhKceIz75gbAkz+8RnJ2E3e/hnAs6Pa8oVSii6xsp2+k5sSK1RV4P/O8PiTJo5nJzfZWhK2iZClcyriunmkCOId2bL3iRJtmAcqbEQYtTCYdBut933Jp55sTPqGmGKEVaik4ILtkuyR6yia4SUj5D0ybQ/LHoBH3wiuICVNTU0dtHs5v95Vf03BFwjvnQio1Occ2I0xyPKwoqZLVXYkSFHEDmoXwGGtY7osq02WxvTJlhHFN0mzjCEgmHqsI6WddR+W98W+vW39oizIsa5iHVuN7uINcAthuafKn6X1ejLAFnivGLHKzOMs32nrLO8N+tquV4P+a1A664NTQSGFEE6Y3UIvZ20q35OBLGfYTBwRUJTzk9N9B9Dsc05a9+sMwwRjlnoVwkjNo+OR6bcK6uxAwB+RHznJCcqhB+ubHkuUxBurhFWAkNzWrit7kJgSBHELq1jTWCyFtFWjHPl5B26Fdu/Xr7SijModHCtdJ0LZe/MlvEkSVbEWSdv3/SIs7bwzwF9EQhW1CinwDv2q7jdwDLvGo/4M0R43Yk31BAYWgRR9b+JqxdOIItrskcduLmlnCgW2T/e+cAdhqacYD09gvpSMCaIz6dP3Amb/iT9DMMeYcoe/nl5e521IFlzRK3l1p5p4mBQHBB2my1G+lCbEG570xEYMgSxx+rIZxDNzhNwORDfELTKOk7feMOROGNSurev+F6oLAq1RQBfeNhTvzgy+UNvQD+bCFeJL50C77yx7Cu03NK9U9bVNJ+hKUY+7XTTlicCQ4Yg9lgdGVAKPR3hfJWm60NEHcx8Fbcnr0lcNvWDxqD+c4lxr8h7+H6b4fB90yNMvfT654h3ilinR5jSxXH69iLfzNP2wKiR6VdxhVOicE602asdr4+ob2ubIHYHXBviCAwJgjTNjI1ul1gIwqVfurDcQJJ7etrNj8za2ssAPgyg9BC0qQEyQPQNmGf0RBDjztfw4mudVzU6I0zJM1sOhiRZItZOiiXiKq5wY7G7ta8+J7nE0JSLh/i8cJvficCQIEjjTP1XkpS6vZdh3euLru/lYMthzFKjBExgIF2MtzOR0LsSulddlhYCgfghI+w/RPxmP1B0CuMsLkSJi1FpJqHemKMIbV/XKgCBIUEQWdX/AcCatOmTkSYbc5pFmLUsk8+dNwZrrNEEsFB5zzr2FlGjhD+V2An7d+e2riiEwU0Jzb/ohAsWjBpZ67FW3j3pZInotuJqbbcRWo2wkqYqXwFzpKq7UPYE8QajhxCTIEiaEeF/X379zdh7rvvNyr5GsDEQO0aS2McM72pFxJpe0l9maIrlIWyPMeLk7fv6219Bvy1rcT7e0JRb+2qP+/vQQaD8CRLQ/0gEKySz3QgUiWvNaj5QN5wf/UlNrRQAsRCNTvNLIVAS4OsZ1GZozY/6VH06A/NE+eKUXhxG2s1+FTf1Pb9oaH4rRrprlYNAWRPEmtDDSKi8pUeisU65B3YQJ6vR01crK4pFu9Ok/vtq/bjvARzvRJAvhRuL/jyEMFyXMTAroSnhypkabk8EAmVNEDkYOxPMThq2fzI05eRCDOHEC27alGtrZ5jAxK7QzZnlbr7xKOsEXcQdFCZiGoqFvc3aTZPql85tfr0QbXLLKB8Eypsgqi78n5xU0ItyEJcKn2DOAMi6s243ET5BEESc1L/znu3UPJVoiaEpliuKa5WFQNkSRA5EjwTRfZlwM+ON5H9HbF/MgzjvRdEtyCPNAKxzk3SZRYfxZ8IvE2HlL5U1NdzelPUrlqzqN4n1scMwlfQgzhvUpxJDHPylH713NYzwrBFW9nCnU2UiUJZPkIkXL9402d7+BhHVZcJucseOSyPT0mVDSjA2dkfHjOouNDTlshI0wa1iEBAoS4LIauwcgB2iv1pbsJY3binNq7ZsRpAEKdey18vgFajFuETIn3GcXsrWuXUVE4HyJEgg+gSILN1buxF4QlzzW/c5SmlyQD8XhCsy62RAT2iKpbDoWmUiUHYEmRiIHWMS3+0A98uGptQPxjDIqv6kk7uKyXTs0kizEJBwrUIRKDuC+FQ9yoDigLcVl6PU4+ALLjyW2bzL4enxREJTrIhUrlUuAmVFkMnBhVt2ML8OcLa/VGdcjlIPhV0Ly143E85JhJWrS90et77SIlBWBPEGYhcS8aUOEBiGplg6VqU030UtW7HHWpyn6wkBX3WA6tu05s5QuaVslVtXKREoL4Ko0WcJlBXiqSsuRymBEXX5grELmbMJS8D8uKZYl69cq2wEyoYg3qB+AjH+7AD384amZEuvl2BcfKr+LANZhJU8OGLJJcr9JWiCW8UgI1A2BJFVXVx8mpiJB4PVhOaPlBqnRrXllxKk27PqZX7EiPgPKnV73PoGB4GyIEjjzNhYSeLXsicj2GN6xi6+dHIqsHkJrSfCEujMuNb8hxI2xa1qEBEoC4LIQV0FI/suBWOxEVEmlxqfTsKKxXltRt2f1tRK9YtCTamgha5VPALlQRBVf8H54hKfYGj+O0o9Cnb9XnvdxLg+HlHOKHV73PoGD4FBJ4is6qesjqF5SzYE9IyhNWfLGJYAK7t+bxpBgIPjmvJwCZrgVlEmCAw+QQL6UlBKDjTDBsVLtifCEnB/XFMcZU/LZCzdZhQBgUElyMSZi39mSh1OGlI/cJJ3SFxaei/ZntzaCZgR15T5RRgDt8gyRmBQCeILRkPMlKVCOFhesvIsfRxMK/JtujF/QOb39fFLT/+yjMfSbVoREBg0goRCIem19i3EZNwhs1+D5SXrC8ZCzOwkG/p7Q1POLgL+bpFljsCgEcQXiHqZKFsBnflJI+LPjsZZZCB7IyxM2s+Y2/zPIjfBLb4MERg8ggRjtzKzg3QPn2tofivcQCmtR8IC3cE/S9ket67yQGBQCNI4a9HOkpl0ir70jVRTM27J7EnvlRoeWdVvA3BSVr2dwT9L3R63vvJAYFAI4lWjGoGc4vfdbGjKqaWGphfCvlOzUqpfdEWTFWHKtepDoOQEOebMa+vWHrXWS0TYJgtu5p8bEb8Is1ZS64Ww3WLWJW2QW1nZIFBygsizYpNg8qJMBJjxWCKiOKkoFhUsi7BrrfUSIZuwJGGP+Bzl2aI2wC28rBEoPUFUXSgQWqLQdmPgtwlNcdLhLSqAPREW4DsMzW8F/3StehEoKUG86sI9CObT2XDzFx21GNcW8ltBNktpcg+EBdNkI+IcnKeU7XPrGlwESkoQORC9DETnZ3bZHjSzlHB41QV7EDwOhMV/O2pH1LeFJqwqZXvcusoPgdISRNX/DWDHLIIwHRaPNGdFkSo2XD0RFgTNCCvBYtfvll/+CJSMIHJo3hi0132aBQnzQ0YkFTSzlDb5vIUjO+pM4eqyRXabaGcj0izI7FqVI1AygviCLUcwS1lbuMR0UTzS/LtSj4Mc1P1gtDjUe6uhKeNL3R63vvJEoGQE8aot5xGkyzNhkIiOXxJuvrPU8MiqLiRDj86qV0KjMUdpLXV73PrKE4FSEqSRICWy1h8Sy/E5/qzviwnXRDW6jwlycD7k/xiaX+j/cjHrd8seOgiUjCDyzOj2kOiVTGiYeXYi4g+VEjJfUL+KGVnu68wUSkSaZ5eyLW5d5Y1AyQgiYJBVXZxzbOgASVFiDjpBf2Ious7wdhKL800yfjdNkuqXhpuySFzeQ+i2rpgIlJQgPjV2O4N/2UOH7mDTXJiYO8VBwKFwEHhVfTp1xj9PK5WQMMKKXLia3JIqAYGSEqQx0LKbRJ4nHdXbf0TzeWZOSJRMxLVpywoNsqzqYictS3xhsPR/C90/t7zCIlBSgoim+1T9PAaydrMcurUcoAQomTDCUx4oRLe9M6MHkkROsj2Dpv9biH65ZRQPgZITpHMt4rzF2mM/6QEmMzFilZlouWzq8v7C4VX16wjIFn4jBIywMre/5br5KheBQSFI6kkSbWBQnucNtIwICZhmIh7xO91I7HGk5FB8DNpXicV52iYBM69Mmsn6tkunlVz/t3KnVeX0bNAIIiBM6WIlrwL4qLwhJbqFk8mluS7qZTV2OsDXZ9bD4EUJzd+Ud/1uhqpAYFAJ0oVwoxptkIjGs4kGIuTbppwW9bKqfw5gvcxRNYmOXzoIJ/lVMbsqoJP5TsaidrkxuHAHj8njmbjByeu3j8odF/W+WfrubFo+VztlPT0YTyciyl5F7ZRb+JBGoKwIYkeycWb0ZEmi8Qw0EJAd1LN32D9mxv+IMBrAVj2v/THFCCvRIT2CbuOLikDZEqT79WtmbKxHwniG9VTZpXBo0AOG1nx44cpzS6pEBMqeIGlPFREWjaTxbHIDEdUNZEA6akfUuTcGB4JgdeQdUgTpfqoE9a09oPHM1lNl9zyH6mUPe45cHJn8YZ753ORViMCQJEjaUyUYO07i1CsYASN6G0MGZiU0JTvUWxUOvNvl3BAY8gTp6qb3ougW5OGDwbQriETYaBG++UMw/kUSPZcE/2tpWLkvN1jcVC4CKQT+H2KpcPVM7wz2AAAAAElFTkSuQmCC" vertex="1" parent="1">
          <mxGeometry x="580" y="193" width="30" height="30" as="geometry" />
        </mxCell>
        <mxCell id="Nct4pxDYZnbTAuoAgPJD-26" value="&lt;font style=&quot;font-size: 15px;&quot;&gt;JD-GUI&lt;/font&gt;" style="text;strokeColor=none;fillColor=none;align=left;verticalAlign=middle;spacingLeft=4;spacingRight=4;overflow=hidden;points=[[0,0.5],[1,0.5]];portConstraint=eastwest;rotatable=0;whiteSpace=wrap;html=1;" vertex="1" parent="1">
          <mxGeometry x="596" y="197.5" width="64" height="30" as="geometry" />
        </mxCell>
        <mxCell id="Nct4pxDYZnbTAuoAgPJD-28" value="解压缩" style="text;html=1;align=center;verticalAlign=middle;whiteSpace=wrap;rounded=0;" vertex="1" parent="1">
          <mxGeometry x="140" y="200" width="60" height="30" as="geometry" />
        </mxCell>
        <mxCell id="Nct4pxDYZnbTAuoAgPJD-33" value="" style="rounded=0;whiteSpace=wrap;html=1;dashed=1;" vertex="1" parent="1">
          <mxGeometry x="440" y="298" width="150" height="80" as="geometry" />
        </mxCell>
        <mxCell id="Nct4pxDYZnbTAuoAgPJD-34" value="*.smali" style="rounded=1;whiteSpace=wrap;html=1;fillStyle=auto;fillColor=#B3B3B3;" vertex="1" parent="1">
          <mxGeometry x="451" y="306" width="40" height="40" as="geometry" />
        </mxCell>
        <mxCell id="Nct4pxDYZnbTAuoAgPJD-35" value="*.smali" style="rounded=1;whiteSpace=wrap;html=1;fillColor=#B3B3B3;" vertex="1" parent="1">
          <mxGeometry x="496" y="316" width="40" height="40" as="geometry" />
        </mxCell>
        <mxCell id="Nct4pxDYZnbTAuoAgPJD-36" value="*.smali" style="rounded=1;whiteSpace=wrap;html=1;fillColor=#B3B3B3;" vertex="1" parent="1">
          <mxGeometry x="540" y="333" width="40" height="38" as="geometry" />
        </mxCell>
        <mxCell id="Nct4pxDYZnbTAuoAgPJD-42" style="edgeStyle=orthogonalEdgeStyle;rounded=0;orthogonalLoop=1;jettySize=auto;html=1;exitX=1;exitY=0.5;exitDx=0;exitDy=0;entryX=0;entryY=0.5;entryDx=0;entryDy=0;" edge="1" parent="1" source="Nct4pxDYZnbTAuoAgPJD-38" target="Nct4pxDYZnbTAuoAgPJD-33">
          <mxGeometry relative="1" as="geometry" />
        </mxCell>
        <mxCell id="Nct4pxDYZnbTAuoAgPJD-38" value="" style="rounded=0;whiteSpace=wrap;html=1;dashed=1;" vertex="1" parent="1">
          <mxGeometry x="240" y="308" width="110" height="60" as="geometry" />
        </mxCell>
        <mxCell id="Nct4pxDYZnbTAuoAgPJD-40" value="APKTool" style="text;html=1;align=center;verticalAlign=middle;whiteSpace=wrap;rounded=0;" vertex="1" parent="1">
          <mxGeometry x="265" y="323" width="60" height="30" as="geometry" />
        </mxCell>
      </root>
    </mxGraphModel>
  </diagram>
</mxfile>
